
        <svg xmlns="http://www.w3.org/2000/svg" xmlns:xlink="http://www.w3.org/1999/xlink" version="1.1" width="3009.049773755656" 
        height="3180.995475113122" viewBox="0 0 3009.049773755656 3180.995475113122">
			
			<g transform="scale(9.049773755656108) translate(10, 10)">
				<defs id="SvgjsDefs2680"></defs><g id="SvgjsG2681" featureKey="rootContainer" transform="matrix(6.25,0,0,6.25,0.31249597668647766,19)" fill="#07689f"><path xmlns="http://www.w3.org/2000/svg" d="M24.95 0a25 25 0 1 0 25 25 25 25 0 0 0-25-25zm0 46.91a22 22 0 1 1 22-22 22 22 0 0 1-22 21.99z"></path><path xmlns="http://www.w3.org/2000/svg" d="M24.95 3.65a21.3 21.3 0 1 0 21.3 21.3 21.33 21.33 0 0 0-21.3-21.3z"></path></g><g id="SvgjsG2682" featureKey="symbolFeature-0" transform="matrix(1.2874299159937777,0,0,1.2874299159937777,91.56311316684395,58.38705474919639)" fill="#fafafa"><path xmlns="http://www.w3.org/2000/svg" fill="#fafafa" d="M37.388,95.787c-1.672,0.086-2.405-0.729-2.405-0.729l-8.318-8.316L43.993,68.21l-18.66,17.197  L10.067,70.142l7.849-8.878l-9.22,7.506l-2.382-2.383c0,0-1.435-1.182-1.306-2.833c0.129-1.649,1.032-2.591,1.032-2.591  l22.502-22.504l33.815,33.817L39.684,94.949C39.683,94.949,39.06,95.702,37.388,95.787z"></path><rect xmlns="http://www.w3.org/2000/svg" x="26.213" y="47.476" transform="matrix(0.7071 0.7071 -0.7071 0.7071 50.6154 -20.5583)" fill="#fafafa" width="47.823" height="6.69"></rect><path xmlns="http://www.w3.org/2000/svg" fill="#fafafa" d="M66.709,42.975c0.101-4.143,9.396-3.003,14.208-7.815c4.812-4.813,13.695-16.5,13.849-17.871  c0.155-1.371,1.124-4.834-2.477-8.566c-3.604-3.732-8.76-2.67-8.76-2.67s-12.263,8.035-18.182,13.951  c-5.337,5.338-3.144,14.452-6.888,14.517s-14.904-11.072-17.376-8.601c-2.472,2.469-3.822,3.82-3.822,3.82l33.813,33.817  c0,0,0.442-0.438,3.823-3.821C78.282,56.351,66.605,47.116,66.709,42.975z"></path></g><g id="SvgjsG2683" featureKey="nameFeature-0" transform="matrix(0.5723627132102634,0,0,0.5723627132102634,54.36470248641014,195.45909269470735)" fill="#fafafa"><path d="M2.8571 35.7143 l0 -24.286 l7.4286 0 l0 22.286 l15.429 0 l0 6.2857 l-18.571 0 z M54.28585714285714 17.714 l-16.857 0 l0 4.8571 l14.571 0 l0 6.2857 l-14.571 0 l0 4.8571 l16.857 0 l0 6.2857 l-20 0 l-4.2857 -4.2857 l0 -24.286 l24.286 0 l0 6.2857 z M80.85685714285714 11.428999999999998 l4.2857 4.2857 l0 20 l-4.2857 4.2857 l-16.571 0 l-4.2857 -4.2857 l0 -20 l4.2857 -4.2857 l16.571 0 z M77.71385714285714 33.7143 l0 -16 l-10.286 0 l0 16 l10.286 0 z M88.57143 11.428999999999998 l7.4286 0 l0 7.2571 l-2.1143 2.1714 l-2.8571 0 l0 -1.4286 l1.1429 -1.1429 l0 -0.57143 l-3.6 0 l0 -6.2857 z M117.42842857142857 17.714 l-10.571 0 l0 4.8571 l14 0 l4.2857 4.2857 l0 8.8571 l-4.2857 4.2857 l-17.143 0 l-4.2857 -4.2857 l0 -4.2857 l5.4286 0 l2.2857 2.2857 l10.571 0 l0 -4.8571 l-14 0 l-4.2857 -4.2857 l0 -8.8571 l4.2857 -4.2857 l17.143 0 l4.2857 4.2857 l0 4.2857 l-5.4286 0 z M145.14281428571428 40 l0 -28.571 l20.857 0 l4.2857 4.2857 l0 12 l-4.2857 4.2857 l-13.429 0 l0 8 l-7.4286 0 z M152.57171428571428 25.714 l10.286 0 l0 -8 l-10.286 0 l0 8 z M175.99995714285714 40 l0 -24.286 l4.2857 -4.2857 l16.571 0 l4.2857 4.2857 l0 24.286 l-7.4286 0 l0 -8 l-10.286 0 l0 8 l-7.4286 0 z M183.42885714285714 25.714 l10.286 0 l0 -8 l-10.286 0 l0 8 z M206 40 l0 -5.7143 l2.2857 0 l0 -17.143 l-2.2857 0 l0 -5.7143 l12 0 l0 5.7143 l-2.2857 0 l0 17.143 l2.2857 0 l0 5.7143 l-12 0 z M240.571 11.428999999999998 l7.4286 0 l0 28.571 l-6.5714 0 l-11.143 -16 l0 16 l-7.4286 0 l0 -28.571 l6.5714 0 l11.143 15.886 l0 -15.886 z M251.71428285714285 17.714 l0 -6.2857 l24.286 0 l0 6.2857 l-8.4571 0 l0 22.286 l-7.4286 0 l0 -22.286 l-8.4 0 z M278.8571428571429 40 l0 -5.7143 l2.2857 0 l0 -17.143 l-2.2857 0 l0 -5.7143 l12 0 l0 5.7143 l-2.2857 0 l0 17.143 l2.2857 0 l0 5.7143 l-12 0 z M313.4281428571429 11.428999999999998 l7.4286 0 l0 28.571 l-6.5714 0 l-11.143 -16 l0 16 l-7.4286 0 l0 -28.571 l6.5714 0 l11.143 15.886 l0 -15.886 z M344.57128571428575 17.714 l-10.571 0 l0 16 l10.857 0 l0 -4.8571 l-6.5714 0 l0 -6.2857 l14 0 l0 13.143 l-4.2857 4.2857 l-17.143 0 l-4.2857 -4.2857 l0 -20 l4.2857 -4.2857 l17.143 0 l4.2857 4.2857 l0 4.2857 l-5.4286 0 z"></path></g><g id="SvgjsG2684" featureKey="sloganFeature-0" transform="matrix(0.4785705392425871,0,0,0.4785705392425871,75.40178659774655,233.30086199436766)" fill="#fafafa"><path d="M6.25 9.98 c2.96 0 4.74 2.27 4.74 4.89 c0 0.74 -0.09 1.11 -0.65 1.11 l-6.99 0 c0.23 1.52 1.5 2.5 3.31 2.5 c1.05 0 1.78 -0.32 2.45 -0.83 c0.16 -0.12 0.28 -0.15 0.43 0 l0.66 0.66 c0.15 0.15 0.16 0.29 0 0.45 c-0.95 0.95 -2.19 1.5 -3.76 1.5 c-3.12 0 -5.19 -2.26 -5.19 -5.14 s2.07 -5.14 5 -5.14 z M6.26 11.83 c-1.53 0 -2.67 1 -2.89 2.59 l5.72 0 c-0.16 -1.57 -1.27 -2.59 -2.83 -2.59 z M27.3475 19.64 c0.16 0.19 0.06 0.36 -0.18 0.36 l-1.85 0 c-0.15 0 -0.26 -0.04 -0.36 -0.17 l-2.84 -3.39 l-2.85 3.39 c-0.1 0.13 -0.21 0.17 -0.36 0.17 l-1.84 0 c-0.25 0 -0.34 -0.17 -0.18 -0.36 l4 -4.69 l-3.72 -4.39 c-0.16 -0.19 -0.07 -0.36 0.18 -0.36 l1.82 0 c0.15 0 0.26 0.04 0.36 0.17 l2.59 3.09 l2.58 -3.09 c0.1 -0.13 0.21 -0.17 0.36 -0.17 l1.82 0 c0.25 0 0.35 0.16 0.18 0.36 l-3.69 4.39 z  M38.925 9.99 c2.84 0 4.49 2.23 4.49 5.13 s-1.69 5.13 -4.49 5.13 c-1.4 0 -2.44 -0.57 -3.17 -1.41 l0 4.66 c0 0.18 -0.12 0.3 -0.3 0.3 l-1.56 0 c-0.18 0 -0.3 -0.12 -0.3 -0.3 l0 -13 c0 -0.18 0.12 -0.3 0.3 -0.3 l1.56 0 c0.18 0 0.3 0.12 0.3 0.3 l0 1.14 l0.2 0 c0.54 -0.91 1.47 -1.65 2.97 -1.65 z M38.495 18.27 c1.87 0 2.83 -1.29 2.83 -3.17 s-0.96 -3.13 -2.83 -3.13 c-1.7 0 -2.76 1.25 -2.76 3.13 s1.06 3.17 2.76 3.17 z M54.5325 9.98 c2.96 0 4.74 2.27 4.74 4.89 c0 0.74 -0.09 1.11 -0.65 1.11 l-6.99 0 c0.23 1.52 1.5 2.5 3.31 2.5 c1.05 0 1.78 -0.32 2.45 -0.83 c0.16 -0.12 0.28 -0.15 0.43 0 l0.66 0.66 c0.15 0.15 0.16 0.29 0 0.45 c-0.95 0.95 -2.19 1.5 -3.76 1.5 c-3.12 0 -5.19 -2.26 -5.19 -5.14 s2.07 -5.14 5 -5.14 z M54.5425 11.83 c-1.53 0 -2.67 1 -2.89 2.59 l5.72 0 c-0.16 -1.57 -1.27 -2.59 -2.83 -2.59 z M71.55 9.98 c2.16 0 3.75 1.32 3.75 3.81 c0 0.19 -0.1 0.3 -0.29 0.32 l-1.56 0.22 c-0.19 0.03 -0.3 -0.08 -0.32 -0.27 c-0.09 -1.46 -0.99 -2.07 -2.27 -2.07 c-2.02 0 -2.96 1.69 -2.96 2.29 l0 5.42 c0 0.18 -0.12 0.3 -0.3 0.3 l-1.56 0 c-0.18 0 -0.3 -0.12 -0.3 -0.3 l0 -9.2 c0 -0.18 0.12 -0.3 0.3 -0.3 l1.48 0 c0.18 0 0.28 0.12 0.3 0.3 l0.08 1.32 l0.22 0 c0.64 -0.94 1.83 -1.84 3.43 -1.84 z M86.16749999999999 8.13 c-0.7 0 -1.25 -0.55 -1.25 -1.24 c0 -0.7 0.55 -1.25 1.25 -1.25 c0.69 0 1.24 0.55 1.24 1.25 c0 0.69 -0.55 1.24 -1.24 1.24 z M90.22749999999999 18.19 c0.18 0 0.3 0.12 0.3 0.3 l0 1.21 c0 0.18 -0.12 0.3 -0.3 0.3 l-8.61 0 c-0.18 0 -0.3 -0.12 -0.3 -0.3 l0 -1.21 c0 -0.18 0.12 -0.3 0.3 -0.3 l3.49 0 l0 -6.18 l-2.99 0 c-0.18 0 -0.3 -0.12 -0.3 -0.3 l0 -1.21 c0 -0.18 0.12 -0.3 0.3 -0.3 l4.85 0 c0.18 0 0.3 0.12 0.3 0.3 l0 7.69 l2.96 0 z M101.54499999999999 9.98 c2.96 0 4.74 2.27 4.74 4.89 c0 0.74 -0.09 1.11 -0.65 1.11 l-6.99 0 c0.23 1.52 1.5 2.5 3.31 2.5 c1.05 0 1.78 -0.32 2.45 -0.83 c0.16 -0.12 0.28 -0.15 0.43 0 l0.66 0.66 c0.15 0.15 0.16 0.29 0 0.45 c-0.95 0.95 -2.19 1.5 -3.76 1.5 c-3.12 0 -5.19 -2.26 -5.19 -5.14 s2.07 -5.14 5 -5.14 z M101.55499999999999 11.83 c-1.53 0 -2.67 1 -2.89 2.59 l5.72 0 c-0.16 -1.57 -1.27 -2.59 -2.83 -2.59 z M118.42249999999999 9.98 c2.09 0 3.54 1.42 3.54 4.04 l0 5.68 c0 0.18 -0.12 0.3 -0.3 0.3 l-1.56 0 c-0.18 0 -0.3 -0.12 -0.3 -0.3 l0 -5.36 c0 -1.67 -0.86 -2.37 -2.17 -2.37 c-1.9 0 -2.72 1.64 -2.72 2.08 l0 5.65 c0 0.18 -0.12 0.3 -0.3 0.3 l-1.56 0 c-0.18 0 -0.3 -0.12 -0.3 -0.3 l0 -9.2 c0 -0.18 0.12 -0.3 0.3 -0.3 l1.48 0 c0.18 0 0.28 0.12 0.3 0.3 l0.08 1.32 l0.21 0 c0.58 -0.94 1.65 -1.84 3.3 -1.84 z M133.63 18.25 c1.06 0 1.92 -0.44 2.5 -1.18 c0.12 -0.15 0.24 -0.18 0.4 -0.08 l1.15 0.67 c0.16 0.1 0.22 0.24 0.1 0.4 c-0.86 1.32 -2.38 2.2 -4.19 2.2 c-2.98 0 -5.16 -2.23 -5.16 -5.14 s2.18 -5.14 5.16 -5.14 c1.81 0 3.33 0.88 4.19 2.2 c0.12 0.16 0.06 0.3 -0.1 0.4 l-1.15 0.67 c-0.16 0.1 -0.28 0.07 -0.4 -0.08 c-0.58 -0.74 -1.44 -1.19 -2.5 -1.19 c-1.78 0 -3.1 1.28 -3.1 3.14 s1.32 3.13 3.1 3.13 z M148.8675 9.98 c2.96 0 4.74 2.27 4.74 4.89 c0 0.74 -0.09 1.11 -0.65 1.11 l-6.99 0 c0.23 1.52 1.5 2.5 3.31 2.5 c1.05 0 1.78 -0.32 2.45 -0.83 c0.16 -0.12 0.28 -0.15 0.43 0 l0.66 0.66 c0.15 0.15 0.16 0.29 0 0.45 c-0.95 0.95 -2.19 1.5 -3.76 1.5 c-3.12 0 -5.19 -2.26 -5.19 -5.14 s2.07 -5.14 5 -5.14 z M148.8775 11.83 c-1.53 0 -2.67 1 -2.89 2.59 l5.72 0 c-0.16 -1.57 -1.27 -2.59 -2.83 -2.59 z M181.0025 18.21 c0.25 0.06 0.36 0.14 0.36 0.35 l0 1.19 c0 0.23 -0.22 0.32 -0.57 0.33 c-1.45 0.03 -2.13 -0.5 -2.13 -1.64 l-0.09 0 c-1.02 1.16 -2.74 1.8 -4.15 1.8 c-2.19 0 -3.33 -1.09 -3.33 -2.79 c0 -1.77 1.13 -2.67 3.36 -3 l2.33 -0.36 c0.83 -0.13 1.27 -0.24 1.39 -0.47 c-0.05 -1.36 -0.83 -1.8 -2.12 -1.8 c-1.27 0 -2.19 0.34 -2.34 1.35 c-0.02 0.14 -0.11 0.22 -0.29 0.22 l-1.49 0 c-0.18 0 -0.31 -0.1 -0.29 -0.3 c0.24 -2.33 1.98 -3.11 4.43 -3.11 c2.84 0 4.2 1.33 4.2 3.74 l0 3.67 c0 0.44 0.23 0.72 0.73 0.82 z M174.83249999999998 18.39 c1.11 0 2.28 -0.25 3.34 -1.31 l0 -2.01 c-0.11 0.23 -0.5 0.34 -1.25 0.46 l-2.1 0.33 c-1.18 0.19 -1.57 0.66 -1.57 1.32 c0 0.73 0.48 1.21 1.58 1.21 z M193.25 9.98 c2.09 0 3.54 1.42 3.54 4.04 l0 5.68 c0 0.18 -0.12 0.3 -0.3 0.3 l-1.56 0 c-0.18 0 -0.3 -0.12 -0.3 -0.3 l0 -5.36 c0 -1.67 -0.86 -2.37 -2.17 -2.37 c-1.9 0 -2.72 1.64 -2.72 2.08 l0 5.65 c0 0.18 -0.12 0.3 -0.3 0.3 l-1.56 0 c-0.18 0 -0.3 -0.12 -0.3 -0.3 l0 -9.2 c0 -0.18 0.12 -0.3 0.3 -0.3 l1.48 0 c0.18 0 0.28 0.12 0.3 0.3 l0.08 1.32 l0.21 0 c0.58 -0.94 1.65 -1.84 3.3 -1.84 z M212.8675 6 c0.18 0 0.3 0.12 0.3 0.3 l0 13.4 c0 0.18 -0.12 0.3 -0.3 0.3 l-1.41 0 c-0.18 0 -0.28 -0.12 -0.3 -0.3 l-0.07 -0.92 c-0.74 0.87 -1.81 1.48 -3.27 1.48 c-2.8 0 -4.56 -2.24 -4.56 -5.14 s1.71 -5.14 4.56 -5.14 c1.58 0 2.52 0.75 3 1.66 l0.19 0 l0 -5.34 c0 -0.18 0.12 -0.3 0.3 -0.3 l1.56 0 z M208.23749999999998 18.28 c1.77 0 2.87 -1.3 2.87 -3.18 s-1.1 -3.14 -2.87 -3.14 c-1.81 0 -2.89 1.26 -2.89 3.14 s1.08 3.18 2.89 3.18 z M240.66249999999997 10.2 c0.18 0 0.3 0.12 0.3 0.3 l0 13 c0 0.18 -0.12 0.3 -0.3 0.3 l-1.56 0 c-0.18 0 -0.3 -0.12 -0.3 -0.3 l0 -4.63 c-0.74 0.82 -1.78 1.39 -3.19 1.39 c-2.8 0 -4.56 -2.24 -4.56 -5.14 s1.71 -5.14 4.56 -5.14 c1.58 0 2.52 0.75 3 1.66 l0.19 0 l0 -1.14 c0 -0.18 0.12 -0.3 0.3 -0.3 l1.56 0 z M236.03249999999997 18.28 c1.77 0 2.87 -1.3 2.87 -3.18 s-1.1 -3.14 -2.87 -3.14 c-1.81 0 -2.89 1.26 -2.89 3.14 s1.08 3.18 2.89 3.18 z M256.59 10.2 c0.18 0 0.3 0.12 0.3 0.3 l0 9.2 c0 0.18 -0.12 0.3 -0.3 0.3 l-1.48 0 c-0.18 0 -0.28 -0.12 -0.3 -0.3 l-0.08 -1.33 l-0.2 0 c-0.61 0.95 -1.67 1.85 -3.27 1.85 c-2.1 0 -3.58 -1.42 -3.58 -4.04 l0 -5.68 c0 -0.18 0.12 -0.3 0.3 -0.3 l1.56 0 c0.18 0 0.3 0.12 0.3 0.3 l0 5.36 c0 1.67 0.88 2.38 2.29 2.38 c1.76 0 2.6 -1.65 2.6 -2.09 l0 -5.65 c0 -0.18 0.12 -0.3 0.3 -0.3 l1.56 0 z M273.2175 18.21 c0.25 0.06 0.36 0.14 0.36 0.35 l0 1.19 c0 0.23 -0.22 0.32 -0.57 0.33 c-1.45 0.03 -2.13 -0.5 -2.13 -1.64 l-0.09 0 c-1.02 1.16 -2.74 1.8 -4.15 1.8 c-2.19 0 -3.33 -1.09 -3.33 -2.79 c0 -1.77 1.13 -2.67 3.36 -3 l2.33 -0.36 c0.83 -0.13 1.27 -0.24 1.39 -0.47 c-0.05 -1.36 -0.83 -1.8 -2.12 -1.8 c-1.27 0 -2.19 0.34 -2.34 1.35 c-0.02 0.14 -0.11 0.22 -0.29 0.22 l-1.49 0 c-0.18 0 -0.31 -0.1 -0.29 -0.3 c0.24 -2.33 1.98 -3.11 4.43 -3.11 c2.84 0 4.2 1.33 4.2 3.74 l0 3.67 c0 0.44 0.23 0.72 0.73 0.82 z M267.04749999999996 18.39 c1.11 0 2.28 -0.25 3.34 -1.31 l0 -2.01 c-0.11 0.23 -0.5 0.34 -1.25 0.46 l-2.1 0.33 c-1.18 0.19 -1.57 0.66 -1.57 1.32 c0 0.73 0.48 1.21 1.58 1.21 z M288.4549999999999 18.19 c0.18 0 0.3 0.12 0.3 0.3 l0 1.21 c0 0.18 -0.12 0.3 -0.3 0.3 l-8.71 0 c-0.18 0 -0.3 -0.12 -0.3 -0.3 l0 -1.21 c0 -0.18 0.12 -0.3 0.3 -0.3 l3.49 0 l0 -10.38 l-3.26 0 c-0.18 0 -0.3 -0.12 -0.3 -0.3 l0 -1.21 c0 -0.18 0.12 -0.3 0.3 -0.3 l5.12 0 c0.18 0 0.3 0.12 0.3 0.3 l0 11.89 l3.06 0 z M299.57249999999993 8.13 c-0.7 0 -1.25 -0.55 -1.25 -1.24 c0 -0.7 0.55 -1.25 1.25 -1.25 c0.69 0 1.24 0.55 1.24 1.25 c0 0.69 -0.55 1.24 -1.24 1.24 z M303.63249999999994 18.19 c0.18 0 0.3 0.12 0.3 0.3 l0 1.21 c0 0.18 -0.12 0.3 -0.3 0.3 l-8.61 0 c-0.18 0 -0.3 -0.12 -0.3 -0.3 l0 -1.21 c0 -0.18 0.12 -0.3 0.3 -0.3 l3.49 0 l0 -6.18 l-2.99 0 c-0.18 0 -0.3 -0.12 -0.3 -0.3 l0 -1.21 c0 -0.18 0.12 -0.3 0.3 -0.3 l4.85 0 c0.18 0 0.3 0.12 0.3 0.3 l0 7.69 l2.96 0 z M319.68999999999994 18.35 c0.11 0.13 0.13 0.28 0.02 0.41 c-0.42 0.52 -1.51 1.4 -3.3 1.4 c-2.05 0 -3.98 -0.76 -3.98 -3.97 l0 -4.18 l-2.48 0 c-0.18 0 -0.3 -0.12 -0.3 -0.3 l0 -1.21 c0 -0.18 0.12 -0.3 0.3 -0.3 l2.48 0 l0 -2.6 c0 -0.18 0.12 -0.3 0.3 -0.3 l1.56 0 c0.18 0 0.3 0.12 0.3 0.3 l0 2.6 l3.95 0 c0.18 0 0.3 0.12 0.3 0.3 l0 1.21 c0 0.18 -0.12 0.3 -0.3 0.3 l-3.95 0 l0 3.95 c0 1.87 1.08 2.26 2.19 2.26 c0.83 0 1.43 -0.36 1.82 -0.67 c0.14 -0.13 0.3 -0.12 0.42 0.02 z M335.3074999999999 10.2 c0.22 0 0.33 0.12 0.24 0.34 l-5.4 13.02 c-0.06 0.16 -0.2 0.24 -0.36 0.24 l-1.56 0 c-0.22 0 -0.33 -0.12 -0.24 -0.34 l1.43 -3.44 l-3.97 -9.48 c-0.09 -0.22 0.02 -0.34 0.24 -0.34 l1.56 0 c0.16 0 0.3 0.08 0.36 0.24 l2.89 7.13 l2.88 -7.13 c0.07 -0.16 0.2 -0.24 0.36 -0.24 l1.57 0 z"></path></g>
			</g>
		</svg>
	