
        <svg xmlns="http://www.w3.org/2000/svg" xmlns:xlink="http://www.w3.org/1999/xlink" version="1.1" width="3155.301113740877" 
        height="3177.5147928994083" viewBox="0 0 3155.301113740877 3177.5147928994083">
			<rect fill="#ffffff" width="3155.301113740877" height="3177.5147928994083"/>
			<g transform="scale(8.875739644970414) translate(10, 10)">
				<defs id="SvgjsDefs1924"><linearGradient id="SvgjsLinearGradient1933"><stop id="SvgjsStop1934" stop-color="#2d388a" offset="0"></stop><stop id="SvgjsStop1935" stop-color="#00aeef" offset="1"></stop></linearGradient></defs><g id="SvgjsG1925" featureKey="rootContainer" transform="matrix(1,0,0,1,0,0)" fill="#fb9c2a"><path xmlns="http://www.w3.org/2000/svg" fill-rule="evenodd" d="M5,65 L167.5,0 L330, 65 L167.5, 10 z M5,258 L167.5,338 L330,253 L167.5, 328 z"></path></g><g id="SvgjsG1926" featureKey="symbolFeature-0" transform="matrix(1.1681045115721833,0,0,1.1681045115721833,109.1597158362712,83.09266035895138)" fill="url(#SvgjsLinearGradient1933)"><path xmlns="http://www.w3.org/2000/svg" fill="url(#SvgjsLinearGradient1933)" d="M37.388,95.787c-1.672,0.086-2.405-0.729-2.405-0.729l-8.318-8.316L43.993,68.21l-18.66,17.197  L10.067,70.142l7.849-8.878l-9.22,7.506l-2.382-2.383c0,0-1.435-1.182-1.306-2.833c0.129-1.649,1.032-2.591,1.032-2.591  l22.502-22.504l33.815,33.817L39.684,94.949C39.683,94.949,39.06,95.702,37.388,95.787z"></path><rect xmlns="http://www.w3.org/2000/svg" x="26.213" y="47.476" transform="matrix(0.7071 0.7071 -0.7071 0.7071 50.6154 -20.5583)" fill="url(#SvgjsLinearGradient1933)" width="47.823" height="6.69"></rect><path xmlns="http://www.w3.org/2000/svg" fill="url(#SvgjsLinearGradient1933)" d="M66.709,42.975c0.101-4.143,9.396-3.003,14.208-7.815c4.812-4.813,13.695-16.5,13.849-17.871  c0.155-1.371,1.124-4.834-2.477-8.566c-3.604-3.732-8.76-2.67-8.76-2.67s-12.263,8.035-18.182,13.951  c-5.337,5.338-3.144,14.452-6.888,14.517s-14.904-11.072-17.376-8.601c-2.472,2.469-3.822,3.82-3.822,3.82l33.813,33.817  c0,0,0.442-0.438,3.823-3.821C78.282,56.351,66.605,47.116,66.709,42.975z"></path></g><g id="SvgjsG1927" featureKey="nameLeftFeature-0" transform="matrix(2.2922928295979497,0,0,2.2922928295979497,-2.750752051347779,201.79639277685163)" fill="#137dc5"><path d="M1.78 19.42 l6.94 0 l0 0.58 l-7.52 0 l0 -14 l0.58 0 l0 13.42 z M11.299999999999999 19.42 l7.28 0 l0 0.58 l-7.68 0 l-0.18 0 l0 -14 l0.58 0 l7.1 0 l0 0.58 l-7.1 0 l0 6.1 l5.66 0 l0 0.58 l-5.66 0 l0 6.16 z M26.64 5.800000000000001 c3.44 0 7.08 2.98 7.08 7.2 s-3.64 7.2 -7.08 7.2 s-7.06 -2.98 -7.06 -7.2 s3.62 -7.2 7.06 -7.2 z M26.64 19.6 c3.1 0 6.5 -2.68 6.5 -6.6 s-3.4 -6.6 -6.5 -6.6 c-3.08 0 -6.48 2.68 -6.48 6.6 s3.4 6.6 6.48 6.6 z M35.9 6 l0 3.5 l-0.58 0 l0 -3.5 l0.58 0 z M41.04 5.76 c1.96 0 3.58 1.34 4.08 2.98 l-0.48 0.18 c-0.56 -1.48 -1.82 -2.6 -3.6 -2.6 c-2 0 -3.36 1.16 -3.36 2.74 c0 1.42 0.96 2.4 2.84 3.14 l1.06 0.4 c2.02 0.82 3.9 1.64 3.9 4.12 c0 2.04 -1.98 3.58 -4.34 3.58 c-2.24 0 -4.2 -1.38 -4.64 -3.42 l0.56 -0.18 c0.48 1.88 2.1 3.04 4.08 3.04 s3.76 -1.26 3.76 -3.04 c0 -2.1 -1.58 -2.84 -3.34 -3.52 l-1.2 -0.48 c-2.18 -0.86 -3.26 -2.02 -3.26 -3.62 c0 -1.86 1.54 -3.32 3.94 -3.32 z"></path></g><g id="SvgjsG1928" featureKey="nameRightFeature-0" transform="matrix(2.3145792169411705,0,0,2.3145792169411705,105.33502787213976,201.5754378929155)" fill="#137dc5"><path d="M12.1 6 c3.14 0 5.18 1.9 5.18 4.76 c0 2.82 -2.04 4.58 -5.18 4.58 l-1.98 0 l0 4.66 l-2.92 0 l0 -14 l4.9 0 z M11.92 12.82 c1.44 0 2.44 -0.56 2.44 -2.06 c0 -1.48 -1 -2.08 -2.44 -2.08 l-1.8 0 l0 4.14 l1.8 0 z M30.36 20 l-1.06 -2.5 l-6.76 0 l-1.06 2.5 l-3.1 0 l6.22 -14 l2.64 0 l6.24 14 l-3.12 0 z M23.560000000000002 15.120000000000001 l4.72 0 l-2.36 -5.54 z M38 6 l0 14 l-2.92 0 l0 -14 l2.92 0 z M49.56 6 l2.92 0 l0 14 l-2.22 0 l-6.94 -8.68 l0 8.68 l-2.92 0 l0 -14 l2.26 0 l6.9 8.7 l0 -8.7 z M64.38000000000001 6 l0 2.68 l-3.48 0 l0 11.32 l-2.92 0 l0 -11.32 l-3.5 0 l0 -2.68 l9.9 0 z M69.30000000000001 6 l0 14 l-2.92 0 l0 -14 l2.92 0 z M80.86 6 l2.92 0 l0 14 l-2.22 0 l-6.94 -8.68 l0 8.68 l-2.92 0 l0 -14 l2.26 0 l6.9 8.7 l0 -8.7 z M99.36 12.559999999999999 c0.62 4.7 -2.44 7.64 -6.22 7.64 c-3.98 0 -7.26 -2.94 -7.26 -7.2 s3.36 -7.2 7.26 -7.2 c1.86 0 3.5 0.6 4.7 1.66 l-1.76 1.98 c-0.74 -0.52 -1.74 -0.9 -2.76 -0.9 c-2.54 0 -4.4 1.86 -4.4 4.46 s1.8 4.46 4.22 4.46 c1.84 0 3.12 -0.66 3.52 -2.42 l-3.3 0 l0 -2.48 l6 0 z"></path></g>
			</g>
		</svg>
	